<svg width="36" height="36" viewBox="0 0 36 36" fill="none" xmlns="http://www.w3.org/2000/svg">
<path d="M32.5758 27.3586L27.9084 5.16796C27.8481 4.87777 27.731 4.60237 27.5638 4.35757C27.3967 4.11277 27.1829 3.90341 26.9346 3.74151C26.6863 3.5796 26.4085 3.46835 26.1171 3.41414C25.8257 3.35993 25.5265 3.36383 25.2366 3.42562L18.6539 4.84031C18.0716 4.9678 17.5633 5.32003 17.2394 5.82038C16.9154 6.32074 16.8022 6.92875 16.9242 7.51218L21.5916 29.7028C21.6956 30.2091 21.9707 30.6641 22.3707 30.9914C22.7708 31.3187 23.2713 31.4983 23.7881 31.5C23.9479 31.4998 24.1072 31.4828 24.2634 31.4494L30.8461 30.0347C31.4291 29.9069 31.9379 29.554 32.2619 29.0527C32.5859 28.5515 32.6987 27.9426 32.5758 27.3586ZM19.125 7.05234C19.125 7.0439 19.125 7.03968 19.125 7.03968L25.7063 5.63343L26.1745 7.86515L19.5933 9.28124L19.125 7.05234ZM20.0559 11.4778L26.64 10.0645L27.1097 12.3005L20.5312 13.7151L20.0559 11.4778ZM20.9897 15.9173L27.5738 14.5026L29.4441 23.3958L22.86 24.8105L20.9897 15.9173ZM30.375 27.8353L23.7937 29.2416L23.3255 27.0098L29.9067 25.5937L30.375 27.8227C30.375 27.8311 30.375 27.8353 30.375 27.8353ZM14.625 4.49999H7.875C7.27826 4.49999 6.70597 4.73705 6.28401 5.159C5.86205 5.58096 5.625 6.15326 5.625 6.74999V29.25C5.625 29.8467 5.86205 30.419 6.28401 30.841C6.70597 31.2629 7.27826 31.5 7.875 31.5H14.625C15.2217 31.5 15.794 31.2629 16.216 30.841C16.6379 30.419 16.875 29.8467 16.875 29.25V6.74999C16.875 6.15326 16.6379 5.58096 16.216 5.159C15.794 4.73705 15.2217 4.49999 14.625 4.49999ZM7.875 6.74999H14.625V8.99999H7.875V6.74999ZM7.875 11.25H14.625V24.75H7.875V11.25ZM14.625 29.25H7.875V27H14.625V29.25Z" fill="#59372A"/>
</svg>
