<svg width="25" height="24" viewBox="0 0 25 24" fill="none" xmlns="http://www.w3.org/2000/svg">
<path d="M24.5448 9.4094C24.5456 9.17586 24.4999 8.9445 24.4104 8.72878C24.321 8.51305 24.1895 8.31726 24.0237 8.15278L16.3926 0.520824C16.2275 0.355705 16.0315 0.224723 15.8158 0.135359C15.6001 0.0459954 15.3689 0 15.1354 0C14.9019 0 14.6707 0.0459954 14.4549 0.135359C14.2392 0.224723 14.0432 0.355705 13.8781 0.520824L10.7192 3.6796L4.2748 6.09841C3.98191 6.20763 3.72286 6.39187 3.52357 6.63269C3.32428 6.8735 3.19175 7.16244 3.13924 7.47058L0.557014 22.9645C0.535706 23.0918 0.542406 23.2223 0.576649 23.3468C0.610891 23.4713 0.671853 23.5869 0.755292 23.6855C0.838731 23.784 0.942644 23.8632 1.0598 23.9175C1.17696 23.9719 1.30454 24 1.43368 24C1.48282 23.9998 1.53186 23.9957 1.58035 23.9878L17.0737 21.4056C17.3815 21.3543 17.6703 21.2228 17.9112 21.0245C18.1521 20.8261 18.3365 20.5679 18.4459 20.2757L20.8648 13.8315L24.0237 10.6671C24.1896 10.5025 24.3211 10.3065 24.4105 10.0906C24.5 9.87467 24.5457 9.64312 24.5448 9.4094ZM16.7815 19.6524L4.0248 21.7779L9.28813 16.5147C9.94552 16.87 10.7088 16.9768 11.4385 16.8156C12.1681 16.6544 12.8154 16.236 13.2619 15.6368C13.7084 15.0377 13.9244 14.2978 13.8703 13.5525C13.8162 12.8073 13.4956 12.1064 12.9672 11.578C12.4388 11.0497 11.7379 10.7291 10.9926 10.675C10.2473 10.6209 9.50746 10.8368 8.90829 11.2833C8.30912 11.7298 7.89067 12.3771 7.72947 13.1067C7.56827 13.8363 7.67507 14.5996 8.03036 15.257L2.76702 20.5223L4.89257 7.76279L10.9892 5.47732L19.067 13.5559L16.7815 19.6524ZM9.43369 13.7781C9.43369 13.5144 9.51189 13.2567 9.6584 13.0374C9.80491 12.8181 10.0131 12.6473 10.2568 12.5463C10.5004 12.4454 10.7685 12.419 11.0271 12.4705C11.2858 12.5219 11.5234 12.6489 11.7098 12.8354C11.8963 13.0218 12.0233 13.2594 12.0747 13.518C12.1262 13.7767 12.0998 14.0447 11.9989 14.2884C11.8979 14.532 11.7271 14.7402 11.5078 14.8867C11.2885 15.0332 11.0307 15.1114 10.767 15.1114C10.4134 15.1114 10.0743 14.971 9.82421 14.7209C9.57417 14.4709 9.43369 14.1317 9.43369 13.7781ZM20.1004 12.076L12.4681 4.44513L15.1348 1.77856L22.767 9.4094L20.1004 12.076Z" fill="#59372A"/>
</svg>
