<svg width="22" height="22" viewBox="0 0 22 22" fill="none" xmlns="http://www.w3.org/2000/svg">
<path d="M7.5625 8.9375H3.4375C3.25516 8.9375 3.0803 8.86507 2.95136 8.73614C2.82243 8.6072 2.75 8.43234 2.75 8.25V4.125C2.75 3.94266 2.82243 3.7678 2.95136 3.63886C3.0803 3.50993 3.25516 3.4375 3.4375 3.4375C3.61984 3.4375 3.7947 3.50993 3.92364 3.63886C4.05257 3.7678 4.125 3.94266 4.125 4.125V6.17461C5.45445 4.675 7.7868 2.75 11 2.75C14.6798 2.75 16.8936 4.92164 16.9864 5.01359C17.1156 5.14237 17.1884 5.31721 17.1887 5.49964C17.1891 5.68208 17.1169 5.85718 16.9881 5.98641C16.8593 6.11564 16.6845 6.18842 16.5021 6.18874C16.3196 6.18906 16.1445 6.1169 16.0153 5.98813C15.9921 5.96492 14.0869 4.125 11 4.125C7.99219 4.125 5.82398 6.24336 4.76437 7.5625H7.5625C7.74484 7.5625 7.9197 7.63493 8.04864 7.76386C8.17757 7.8928 8.25 8.06766 8.25 8.25C8.25 8.43234 8.17757 8.6072 8.04864 8.73614C7.9197 8.86507 7.74484 8.9375 7.5625 8.9375ZM18.5625 13.0625H14.4375C14.2552 13.0625 14.0803 13.1349 13.9514 13.2639C13.8224 13.3928 13.75 13.5677 13.75 13.75C13.75 13.9323 13.8224 14.1072 13.9514 14.2361C14.0803 14.3651 14.2552 14.4375 14.4375 14.4375H17.2356C16.176 15.7566 14.0078 17.875 11 17.875C7.91313 17.875 6.00789 16.0351 5.98469 16.0119C5.85546 15.8831 5.68036 15.8109 5.49793 15.8113C5.31549 15.8116 5.14065 15.8844 5.01187 16.0136C4.8831 16.1428 4.81094 16.3179 4.81126 16.5004C4.81158 16.6828 4.88436 16.8576 5.01359 16.9864C5.10641 17.0784 7.32016 19.25 11 19.25C14.2132 19.25 16.5455 17.325 17.875 15.8254V17.875C17.875 18.0573 17.9474 18.2322 18.0764 18.3611C18.2053 18.4901 18.3802 18.5625 18.5625 18.5625C18.7448 18.5625 18.9197 18.4901 19.0486 18.3611C19.1776 18.2322 19.25 18.0573 19.25 17.875V13.75C19.25 13.5677 19.1776 13.3928 19.0486 13.2639C18.9197 13.1349 18.7448 13.0625 18.5625 13.0625Z" fill="#59372A"/>
</svg>
