<svg width="28" height="28" viewBox="0 0 28 28" fill="none" xmlns="http://www.w3.org/2000/svg">
<path d="M12.25 23.625C12.25 23.8571 12.1578 24.0796 11.9937 24.2437C11.8296 24.4078 11.6071 24.5 11.375 24.5H5.25C4.78587 24.5 4.34075 24.3156 4.01256 23.9874C3.68437 23.6592 3.5 23.2141 3.5 22.75V5.25C3.5 4.78587 3.68437 4.34075 4.01256 4.01256C4.34075 3.68437 4.78587 3.5 5.25 3.5H11.375C11.6071 3.5 11.8296 3.59219 11.9937 3.75628C12.1578 3.92038 12.25 4.14294 12.25 4.375C12.25 4.60706 12.1578 4.82962 11.9937 4.99372C11.8296 5.15781 11.6071 5.25 11.375 5.25H5.25V22.75H11.375C11.6071 22.75 11.8296 22.8422 11.9937 23.0063C12.1578 23.1704 12.25 23.3929 12.25 23.625ZM24.2441 13.3809L19.8691 9.00594C19.7049 8.84175 19.4822 8.74951 19.25 8.74951C19.0178 8.74951 18.7951 8.84175 18.6309 9.00594C18.4668 9.17012 18.3745 9.39281 18.3745 9.625C18.3745 9.85719 18.4668 10.0799 18.6309 10.2441L21.513 13.125H11.375C11.1429 13.125 10.9204 13.2172 10.7563 13.3813C10.5922 13.5454 10.5 13.7679 10.5 14C10.5 14.2321 10.5922 14.4546 10.7563 14.6187C10.9204 14.7828 11.1429 14.875 11.375 14.875H21.513L18.6309 17.7559C18.4668 17.9201 18.3745 18.1428 18.3745 18.375C18.3745 18.6072 18.4668 18.8299 18.6309 18.9941C18.7951 19.1582 19.0178 19.2505 19.25 19.2505C19.4822 19.2505 19.7049 19.1582 19.8691 18.9941L24.2441 14.6191C24.3254 14.5378 24.39 14.4413 24.434 14.3351C24.478 14.2288 24.5007 14.115 24.5007 14C24.5007 13.885 24.478 13.7712 24.434 13.6649C24.39 13.5587 24.3254 13.4622 24.2441 13.3809Z" fill="#CE1F1F"/>
</svg>
