<svg width="36" height="36" viewBox="0 0 36 36" fill="none" xmlns="http://www.w3.org/2000/svg">
<path d="M34.25 29.25H32V16.2492C32 15.9378 31.9355 15.6298 31.8103 15.3447C31.6852 15.0595 31.5022 14.8034 31.273 14.5927L20.023 3.97829C20.0175 3.97349 20.0123 3.96832 20.0075 3.96282C19.5933 3.58613 19.0535 3.3774 18.4937 3.3774C17.9338 3.3774 17.394 3.58613 16.9798 3.96282L16.9644 3.97829L5.72703 14.5927C5.49781 14.8034 5.31484 15.0595 5.18969 15.3447C5.06455 15.6298 4.99995 15.9378 5 16.2492V29.25H2.75C2.45163 29.25 2.16548 29.3685 1.9545 29.5795C1.74353 29.7905 1.625 30.0766 1.625 30.375C1.625 30.6734 1.74353 30.9595 1.9545 31.1705C2.16548 31.3815 2.45163 31.5 2.75 31.5H34.25C34.5484 31.5 34.8345 31.3815 35.0455 31.1705C35.2565 30.9595 35.375 30.6734 35.375 30.375C35.375 30.0766 35.2565 29.7905 35.0455 29.5795C34.8345 29.3685 34.5484 29.25 34.25 29.25ZM7.25 16.2492L7.26547 16.2352L18.5 5.625L29.7359 16.2323L29.7514 16.2464V29.25H23V22.5C23 21.9033 22.7629 21.331 22.341 20.909C21.919 20.4871 21.3467 20.25 20.75 20.25H16.25C15.6533 20.25 15.081 20.4871 14.659 20.909C14.2371 21.331 14 21.9033 14 22.5V29.25H7.25V16.2492ZM20.75 29.25H16.25V22.5H20.75V29.25Z" fill="#59372A"/>
</svg>
