<svg width="30" height="30" viewBox="0 0 23 23" fill="none" xmlns="http://www.w3.org/2000/svg">
<path d="M20.125 11.5C20.125 11.6906 20.0493 11.8734 19.9145 12.0082C19.7797 12.143 19.5969 12.2188 19.4062 12.2188H3.59375C3.40313 12.2188 3.22031 12.143 3.08552 12.0082C2.95073 11.8734 2.875 11.6906 2.875 11.5C2.875 11.3094 2.95073 11.1266 3.08552 10.9918C3.22031 10.857 3.40313 10.7812 3.59375 10.7812H19.4062C19.5969 10.7812 19.7797 10.857 19.9145 10.9918C20.0493 11.1266 20.125 11.3094 20.125 11.5ZM3.59375 6.46875H19.4062C19.5969 6.46875 19.7797 6.39302 19.9145 6.25823C20.0493 6.12344 20.125 5.94062 20.125 5.75C20.125 5.55938 20.0493 5.37656 19.9145 5.24177C19.7797 5.10698 19.5969 5.03125 19.4062 5.03125H3.59375C3.40313 5.03125 3.22031 5.10698 3.08552 5.24177C2.95073 5.37656 2.875 5.55938 2.875 5.75C2.875 5.94062 2.95073 6.12344 3.08552 6.25823C3.22031 6.39302 3.40313 6.46875 3.59375 6.46875ZM19.4062 16.5312H3.59375C3.40313 16.5312 3.22031 16.607 3.08552 16.7418C2.95073 16.8766 2.875 17.0594 2.875 17.25C2.875 17.4406 2.95073 17.6234 3.08552 17.7582C3.22031 17.893 3.40313 17.9688 3.59375 17.9688H19.4062C19.5969 17.9688 19.7797 17.893 19.9145 17.7582C20.0493 17.6234 20.125 17.4406 20.125 17.25C20.125 17.0594 20.0493 16.8766 19.9145 16.7418C19.7797 16.607 19.5969 16.5312 19.4062 16.5312Z" fill="#59372A"/>
</svg>
