<svg width="36" height="36" viewBox="0 0 36 36" fill="none" xmlns="http://www.w3.org/2000/svg">
<path d="M31.5 18C31.5 18.2984 31.3815 18.5845 31.1705 18.7955C30.9595 19.0065 30.6734 19.125 30.375 19.125H19.125V30.375C19.125 30.6734 19.0065 30.9595 18.7955 31.1705C18.5845 31.3815 18.2984 31.5 18 31.5C17.7016 31.5 17.4155 31.3815 17.2045 31.1705C16.9935 30.9595 16.875 30.6734 16.875 30.375V19.125H5.625C5.32663 19.125 5.04048 19.0065 4.82951 18.7955C4.61853 18.5845 4.5 18.2984 4.5 18C4.5 17.7016 4.61853 17.4155 4.82951 17.2045C5.04048 16.9935 5.32663 16.875 5.625 16.875H16.875V5.625C16.875 5.32663 16.9935 5.04048 17.2045 4.82951C17.4155 4.61853 17.7016 4.5 18 4.5C18.2984 4.5 18.5845 4.61853 18.7955 4.82951C19.0065 5.04048 19.125 5.32663 19.125 5.625V16.875H30.375C30.6734 16.875 30.9595 16.9935 31.1705 17.2045C31.3815 17.4155 31.5 17.7016 31.5 18Z" fill="#59372A"/>
</svg>
